<svg width="184" height="36" viewBox="0 0 184 36" fill="none" xmlns="http://www.w3.org/2000/svg">
<path d="M29.1857 17.8272C30.9308 19.5826 33.7606 19.5826 35.5056 17.8272L37.573 15.7505C38.587 14.7318 39.3102 13.713 39.7504 12.7021C40.1906 11.6912 40.3242 10.7273 40.1749 9.81829C40.0176 8.90926 39.5775 8.08643 38.8464 7.35764C38.1075 6.61317 37.2586 6.19 36.3153 6.08813C35.3642 5.98625 34.4209 6.22918 33.4776 6.81692L33.4619 6.80125L33.4462 6.78557C34.0278 5.83736 34.2715 4.88914 34.1693 3.93309C34.0672 2.98488 33.6505 2.1307 32.9038 1.39407C32.1727 0.665277 31.3552 0.218597 30.4513 0.0618671C29.5473 -0.0948627 28.5883 0.0461936 27.5743 0.485037C26.5681 0.92388 25.5541 1.65267 24.5401 2.67142L22.4727 4.74809C20.7277 6.50346 20.7277 9.34027 22.4727 11.0878L24.6816 13.3055L20.1224 17.8899L15.5554 13.3055L17.7642 11.0878C19.5093 9.33243 19.5093 6.49562 17.7642 4.74809L15.6969 2.67142C14.6828 1.65267 13.6688 0.92388 12.6627 0.485037C11.6565 0.0461936 10.6975 -0.0948627 9.78566 0.0618671C8.88169 0.218597 8.06418 0.65744 7.33314 1.39407C6.59424 2.13854 6.16977 2.98488 6.06758 3.93309C5.96539 4.88914 6.20907 5.83736 6.79076 6.78557L6.77504 6.80125L6.75932 6.81692C5.81604 6.22918 4.87276 5.98625 3.92163 6.08813C2.97049 6.19 2.12941 6.61317 1.39051 7.35764C0.659467 8.08643 0.21927 8.90926 0.0620573 9.81829C-0.0951553 10.7273 0.046338 11.6912 0.486533 12.7021C0.918868 13.713 1.64991 14.7318 2.66393 15.7505L4.73127 17.8272C6.47633 19.5826 9.30616 19.5826 11.0512 17.8272L13.2601 15.6095L17.8271 20.1938L10.4617 27.5914L6.93225 24.0494L5.23435 25.7499L6.19335 26.7138L4.49546 28.4143L7.06588 31.0003L3.53646 27.4582L1.83856 29.1587L5.36798 32.7008L4.37755 33.6961L6.66499 36L20.1067 22.5056L33.5483 36L35.8358 33.6961L34.8454 32.7008L38.3748 29.1587L36.6769 27.4582L33.171 30.9846L35.7415 28.3986L34.0436 26.6981L35.0026 25.7342L33.3047 24.0337L29.7752 27.5758L22.4098 20.186L26.9769 15.6016L29.1857 17.8272ZM9.3376 3.89391C9.62059 3.60396 9.96645 3.43156 10.3595 3.35319C10.7525 3.28266 11.1691 3.33752 11.6093 3.53343C12.0417 3.72151 12.4661 4.02713 12.8827 4.44246L15.2567 6.82476C15.8619 7.436 15.8619 8.41556 15.2567 9.02681L13.2758 11.0173L9.82496 7.54571C9.20397 6.91879 8.85024 6.2762 8.75592 5.6101C8.66159 4.95183 8.8581 4.37193 9.3376 3.89391ZM8.9996 15.296C8.39433 15.9072 7.41175 15.9072 6.80648 15.296L4.43257 12.9137C4.01596 12.4984 3.71725 12.0674 3.5286 11.6364C3.33994 11.1975 3.28492 10.7822 3.35566 10.3825C3.42641 9.98286 3.6072 9.64589 3.89019 9.35594C4.36968 8.87008 4.94351 8.682 5.6038 8.7682C6.2641 8.86224 6.90867 9.21488 7.52966 9.8418L10.9805 13.3055L8.9996 15.296ZM34.641 8.77604C35.3013 8.682 35.8751 8.87791 36.3546 9.36378C36.6376 9.65373 36.8184 9.9907 36.8891 10.3904C36.9599 10.79 36.9048 11.2054 36.7162 11.6442C36.5275 12.083 36.2288 12.5062 35.8122 12.9215L33.4383 15.3038C32.833 15.9151 31.8505 15.9151 31.2452 15.3038L29.2643 13.3134L32.7151 9.84964C33.3361 9.22272 33.9807 8.86224 34.641 8.77604ZM24.996 6.82476L27.3699 4.44246C27.7865 4.02713 28.211 3.72151 28.6433 3.53343C29.0756 3.34535 29.4923 3.28266 29.8932 3.35319C30.2862 3.42372 30.6321 3.60396 30.915 3.89391C31.3945 4.37977 31.5911 4.95183 31.4967 5.6101C31.4024 6.2762 31.0487 6.91879 30.4277 7.54571L26.9769 11.0094L24.996 9.01897C24.3907 8.41556 24.3907 7.42816 24.996 6.82476Z" fill="#9CCA7F"/>
<path fill-rule="evenodd" clip-rule="evenodd" d="M79.2925 16.5508C78.2366 16.123 76.9717 15.9105 75.4897 15.9105H69.3689V13.2273H81.0839V9H64V26H76.4424C77.7317 26 78.8365 25.8102 79.7512 25.4305C80.6686 25.0508 81.3662 24.5097 81.8439 23.8042C82.3216 23.1015 82.5605 22.2657 82.5605 21.2995C82.5605 20.1662 82.2782 19.1972 81.7163 18.3953C81.1545 17.5907 80.3456 16.9758 79.2925 16.5508ZM76.931 21.75C76.741 22.0362 76.4642 22.2515 76.1004 22.4045C75.7367 22.5547 75.3106 22.6283 74.8274 22.6283H69.3472V18.877H74.8057C75.5331 18.877 76.1167 19.0527 76.5564 19.4012C76.9962 19.7497 77.216 20.2172 77.216 20.8008C77.216 21.1493 77.121 21.4638 76.931 21.75Z" fill="black"/>
<path fill-rule="evenodd" clip-rule="evenodd" d="M84.2461 26L91.6399 9H97.9615L105.217 26H99.6688L98.4392 22.9853H90.9803L89.8186 26H84.2461ZM94.7342 12.7513L92.028 19.5882H97.4404L94.7803 12.7513H94.7342Z" fill="black"/>
<path d="M110.548 13.2245H104.677V9H121.758V13.2245H115.914V26H110.548V13.2245Z" fill="black"/>
<path d="M151.382 18.996H160.616V15.6952H151.382V12.774H161.526V9H146.195V26H161.754V22.2232H151.382V18.996Z" fill="black"/>
<path fill-rule="evenodd" clip-rule="evenodd" d="M180.792 9.69983C181.837 10.1673 182.635 10.8502 183.18 11.7427C183.726 12.638 184 13.7005 184 14.9358C184 16.1542 183.723 17.1968 183.169 18.0582C182.616 18.9223 181.82 19.5825 180.781 20.0415C179.741 20.5005 178.495 20.73 177.038 20.73H171.012V26H165.665V9H177.106C178.517 9 179.747 9.23233 180.792 9.69983ZM177.209 17.024C177.686 16.8342 178.039 16.5593 178.267 16.1938C178.495 15.8283 178.607 15.3948 178.604 14.8877C178.604 14.0972 178.343 13.4908 177.819 13.0715C177.298 12.6522 176.549 12.4425 175.58 12.4425H171.009V17.3102H175.558C176.18 17.3102 176.731 17.2138 177.209 17.024Z" fill="black"/>
<path d="M125.965 13.2613V9H142.384V26H137.015V12.9667H131.334V14.4428C131.334 23.0618 130.02 26 123.283 26H122.39V23.7333H123.691V21.4638H122.39V19.1943H124.453C124.453 19.1943 125.835 19.2992 125.897 16.8852C125.943 15.8935 125.965 14.7007 125.965 13.2613Z" fill="black"/>
</svg>
