<svg width="184" height="28" viewBox="0 0 184 28" fill="none" xmlns="http://www.w3.org/2000/svg">
<path fill-rule="evenodd" clip-rule="evenodd" d="M143.149 0C142.012 0 140.956 0.894977 140.956 2.03501C140.956 3.26027 142.012 4.15525 143.149 4.07002C144.469 4.07002 145.433 3.17504 145.433 2.03501C145.433 0.894977 144.377 0 143.149 0ZM141.565 27.3501H144.893V7.64992H141.565V27.3501ZM132.015 27.3501H135.343V0.159817H132.015V27.3501ZM152.974 23.1948V10.3349H149.462V7.64992H152.974V0.159817H156.303V7.64992H160.596V10.3349H156.303V22.5449C156.303 24.0152 157.003 25.07 158.495 25.07C159.368 25.07 160.332 24.6651 160.779 24.2603L161.744 26.5403C160.871 27.2755 159.723 27.8402 157.795 27.8402C154.547 27.8402 152.974 26.1248 152.974 23.1948ZM173.842 7.15982C167.793 7.15982 163.408 11.7945 163.408 17.4947C163.408 23.5997 167.884 27.8295 174.106 28C176.562 28 178.663 27.5099 180.419 26.5297C181.211 26.1248 182.003 25.5495 182.611 24.9848L181.027 22.9498C180.591 23.3546 180.063 23.7595 179.455 24.0898C177.962 24.8995 176.206 25.3897 174.45 25.3897C169.893 25.3897 167.081 22.2998 166.817 18.5495H184V17.7397C184.012 11.8052 180.247 7.15982 173.842 7.15982ZM166.909 15.79C167.081 12.7747 169.365 9.68493 173.842 9.68493C178.663 9.68493 180.775 12.86 180.855 15.79H166.909Z" fill="#121212"/>
<path d="M103.512 0.875H100.619C102.639 4.94502 105.268 8.36511 108.069 11.7V12.3499H0V15.0348H108.069V15.6847C105.52 18.2099 102.984 21.5447 100.619 26.4245H103.512C109.297 20.1596 114.91 16.2494 119.822 14.0546V13.3194C115.266 11.5401 109.653 7.3849 103.512 0.875Z" fill="#017BFF"/>
<path d="M103.512 0.875H100.619C102.639 4.94502 105.268 8.36511 108.069 11.7V12.3499H0V15.0348H108.069V15.6847C105.52 18.2099 102.984 21.5447 100.619 26.4245H103.512C109.297 20.1596 114.91 16.2494 119.822 14.0546V13.3194C115.266 11.5401 109.653 7.3849 103.512 0.875Z" fill="#017BFF"/>
</svg>
