<svg width="20" height="20" viewBox="0 0 20 20" fill="none" xmlns="http://www.w3.org/2000/svg">
<path d="M9.99935 1.67847C5.39702 1.67847 1.66602 5.4093 1.66602 10.0118C1.66602 14.6143 5.39702 18.3451 9.99935 18.3451C14.6017 18.3451 18.3327 14.6143 18.3327 10.0118C18.3327 5.4093 14.6017 1.67847 9.99935 1.67847ZM9.99935 3.34513C13.6813 3.34513 16.666 6.33013 16.666 10.0118C16.666 13.6935 13.6813 16.6785 9.99935 16.6785C6.31743 16.6785 3.33268 13.6935 3.33268 10.0118C3.33268 6.33013 6.31743 3.34513 9.99935 3.34513Z" fill="currentColor"/>
<path d="M13.3485 6.66406C13.1352 6.66406 12.9127 6.73406 12.7502 6.89406L9.66101 10.7224C9.44684 10.9332 9.23184 10.8941 9.06351 10.6457L8.2335 9.46239C7.9785 9.08656 7.44517 8.98156 7.06267 9.23239C6.681 9.48323 6.57433 10.0074 6.82934 10.3832L7.6585 11.5666C9.06351 13.2362 9.5835 13.3334 10.8318 11.8732L13.9468 8.07072C14.271 7.75072 14.271 7.21406 13.9468 6.89406C13.7843 6.73406 13.561 6.66406 13.3485 6.66406Z" fill="currentColor"/>
</svg>
