<svg width="16" height="16" viewBox="0 0 16 16" fill="none" xmlns="http://www.w3.org/2000/svg">
<path d="M5.99971 1.30225C4.89511 1.30225 3.99978 2.19558 3.99971 3.30225V4.01058H3.33305C2.72338 3.98605 1.33349 4.66683 1.3337 6.01058C1.3341 8.64596 1.33276 9.96891 1.33305 12.6769C1.33305 13.7816 2.22845 14.6776 3.33305 14.6769H9.99971C11.1043 14.6769 11.9997 13.7816 11.9997 12.6769V12.0102L12.6664 11.9896C13.771 11.9896 14.6663 11.0962 14.6664 9.98958V3.30225C14.6664 2.19565 13.7709 1.30211 12.6664 1.30225H5.99971ZM12.6664 2.63558C13.0346 2.63558 13.3331 2.93338 13.333 3.30225V9.96891C13.333 10.3376 13.0346 10.6356 12.6664 10.6356L11.9997 10.6562V6.01058C11.9997 4.90598 11.1043 4.01058 9.99971 4.01058H5.33305V3.32304C5.33305 2.95424 5.63151 2.65638 5.99971 2.65638L12.6664 2.63558ZM3.33305 5.34391H9.99971C10.3679 5.34391 10.6664 5.64238 10.6664 6.01058V11.9896V12.6769C10.6664 13.0456 10.3679 13.3442 9.99971 13.3436H3.33305C2.96485 13.3436 2.66638 13.0456 2.66638 12.6769V11.9896V11.3436V6.01058C2.66638 5.82618 2.73325 5.65198 2.85391 5.53145C2.97451 5.41078 3.14898 5.34391 3.33305 5.34391Z" fill="currentColor"/>
</svg>
