<svg width="22" height="22" viewBox="0 0 22 22" fill="none" xmlns="http://www.w3.org/2000/svg">
<path d="M10.9987 1.84631C5.93595 1.84631 1.83203 5.95023 1.83203 11.013V14.6796C1.83203 15.1856 2.2427 15.5963 2.7487 15.5963C2.9522 15.5963 3.25745 15.5963 3.66536 15.5963V16.513C3.66536 18.0319 4.89645 19.263 6.41536 19.263C7.93428 19.263 9.16536 18.0319 9.16536 16.513V12.8463C9.16536 11.3274 7.93428 10.0963 6.41536 10.0963C4.89645 10.0963 3.66536 11.3274 3.66536 12.8463V11.013C3.66536 6.96315 6.94886 3.67965 10.9987 3.67965C15.0485 3.67965 18.332 6.96315 18.332 11.013V12.8463C18.332 11.3274 17.1009 10.0963 15.582 10.0963C14.0631 10.0963 12.832 11.3274 12.832 12.8463V16.513C12.832 18.0319 14.0631 19.263 15.582 19.263C17.1009 19.263 18.332 18.0319 18.332 16.513V15.5963C18.7399 15.5963 19.0452 15.5963 19.2487 15.5963C19.7547 15.5963 20.1654 15.1856 20.1654 14.6796V11.013C20.1654 5.95023 16.0614 1.84631 10.9987 1.84631ZM6.41536 11.9296C6.92136 11.9296 7.33203 12.3403 7.33203 12.8463V16.513C7.33203 17.019 6.92136 17.4296 6.41536 17.4296C5.90936 17.4296 5.4987 17.019 5.4987 16.513V12.8463C5.4987 12.3403 5.90936 11.9296 6.41536 11.9296ZM15.582 11.9296C16.088 11.9296 16.4987 12.3403 16.4987 12.8463V14.6796V16.513C16.4987 17.019 16.088 17.4296 15.582 17.4296C15.076 17.4296 14.6654 17.019 14.6654 16.513V12.8463C14.6654 12.3403 15.076 11.9296 15.582 11.9296Z" fill="currentColor"/>
</svg>
