<svg width="22" height="22" viewBox="0 0 22 22" fill="none" xmlns="http://www.w3.org/2000/svg">
<path d="M6.41471 2.74146C4.3898 2.74146 2.74805 4.38321 2.74805 6.40812V14.6581V15.5748C2.74805 17.5997 4.3898 19.2415 6.41471 19.2415H15.5814C17.6063 19.2415 19.248 17.5997 19.248 15.5748V14.6581V6.40812C19.248 4.38321 17.6063 2.74146 15.5814 2.74146H6.41471ZM6.41471 4.57479H15.5814C16.5943 4.57479 17.4147 5.39521 17.4147 6.40812L17.4184 12.0878C16.7052 11.4259 15.9783 11.0116 15.1799 10.9915C15.1515 10.9905 15.1524 10.9915 15.123 10.9915C14.0808 10.9915 12.9221 11.7926 12.1439 12.7964C11.945 12.3472 11.7442 11.9035 11.5132 11.4782C10.4316 9.48079 9.24996 8.2442 7.78971 8.24146C6.54855 8.23871 5.48338 9.25345 4.57405 10.6431L4.58138 6.40812C4.58138 5.39521 5.4018 4.57479 6.41471 4.57479ZM14.6647 6.40812C14.1587 6.40812 13.748 6.81879 13.748 7.32479C13.748 7.83079 14.1587 8.24146 14.6647 8.24146C15.1707 8.24146 15.5814 7.83079 15.5814 7.32479C15.5814 6.81879 15.1707 6.40812 14.6647 6.40812ZM7.78971 10.0748C8.32321 10.0757 9.13356 10.9062 9.90906 12.338C10.2171 12.9045 10.493 13.5288 10.7405 14.1429C10.889 14.5096 11.0036 14.7901 11.0549 14.9441C11.3051 15.693 12.3208 15.7994 12.7168 15.1165C12.7562 15.0486 12.8277 14.9185 12.946 14.7443C13.144 14.4509 13.3695 14.154 13.605 13.8845C14.1935 13.2098 14.761 12.8248 15.123 12.8248C15.4888 12.834 16.0535 13.218 16.6411 13.8845C16.8794 14.1549 17.0994 14.4509 17.3001 14.7443C17.3634 14.8359 17.3725 14.879 17.4147 14.9441V15.5748C17.4147 16.5877 16.5943 17.4081 15.5814 17.4081H6.41471C5.4018 17.4081 4.58138 16.5877 4.58138 15.5748V14.8011C4.63913 14.638 4.71614 14.4445 4.83897 14.1429C5.08922 13.5288 5.36054 12.9054 5.67037 12.338C6.45229 10.9035 7.25713 10.0739 7.78971 10.0748Z" fill="currentColor"/>
</svg>
