<svg width="24" height="24" viewBox="0 0 24 24" fill="none" xmlns="http://www.w3.org/2000/svg">
<path d="M10.1774 13.8118C10.5677 14.2021 11.2011 14.2024 11.5916 13.8118L19.0601 6.34336L19.0774 9.57017C19.0803 10.1196 19.5265 10.5634 20.0759 10.5634C20.6261 10.5634 21.0726 10.1184 21.0745 9.56821L21.0937 3.91232C21.093 3.36007 20.6291 2.89621 20.0769 2.89551L14.421 2.91474C13.8708 2.91661 13.4258 3.36314 13.4258 3.9133C13.4258 4.4627 13.8696 4.9089 14.419 4.91184L17.6458 4.92915L10.1774 12.3976C9.78684 12.7881 9.78698 13.4216 10.1774 13.8118Z" fill="currentColor"/>
<path d="M16.9912 18.9987H15.994L15.9912 18.9987H6.99121C5.88621 18.9987 4.99121 18.1037 4.99121 16.9987L4.99122 7.99871L4.99121 7.99585V6.9987C4.99121 5.8937 5.88621 4.9987 6.99121 4.9987L8.99121 4.9987C9.54321 4.9987 9.99121 4.5507 9.99121 3.9987C9.99121 3.4467 9.54321 2.99869 8.99121 2.99869L6.99121 2.99869C4.78221 2.99869 2.99121 4.7897 2.99121 6.9987V16.9987C2.99121 17.551 3.10315 18.0771 3.30557 18.5556C3.91284 19.9913 5.33446 20.9987 6.99121 20.9987L16.9912 20.9987C19.2002 20.9987 20.9912 19.2077 20.9912 16.9987V14.9987C20.9912 14.4467 20.5432 13.9987 19.9912 13.9987C19.4392 13.9987 18.9912 14.4467 18.9912 14.9987V16.9987C18.9912 18.1037 18.0962 18.9987 16.9912 18.9987Z" fill="currentColor"/>
</svg>
