<svg width="22" height="22" viewBox="0 0 22 22" fill="none" xmlns="http://www.w3.org/2000/svg">
<path d="M2.7487 5.59485C2.2427 5.59485 1.83203 6.00552 1.83203 6.51152C1.83203 7.01752 2.2427 7.42818 2.7487 7.42818H19.2487C19.7547 7.42818 20.1654 7.01752 20.1654 6.51152C20.1654 6.00552 19.7547 5.59485 19.2487 5.59485H2.7487ZM2.7487 10.1782C2.2427 10.1782 1.83203 10.5888 1.83203 11.0948C1.83203 11.6008 2.2427 12.0115 2.7487 12.0115H19.2487C19.7547 12.0115 20.1654 11.6008 20.1654 11.0948C20.1654 10.5888 19.7547 10.1782 19.2487 10.1782H2.7487ZM2.7487 14.7615C2.2427 14.7615 1.83203 15.1722 1.83203 15.6782C1.83203 16.1842 2.2427 16.5948 2.7487 16.5948H19.2487C19.7547 16.5948 20.1654 16.1842 20.1654 15.6782C20.1654 15.1722 19.7547 14.7615 19.2487 14.7615H2.7487Z" fill="currntColor"/>
</svg>
