<svg width="16" height="16" viewBox="0 0 16 16" fill="none" xmlns="http://www.w3.org/2000/svg">
<path d="M7.96608 0H8.00297C8.19198 0.0906738 8.37608 0.191398 8.55448 0.301745C10.6081 1.4912 12.6617 2.68104 14.7153 3.87125C14.7948 3.91397 14.8596 3.97974 14.9015 4.06003C14.9434 4.14033 14.9604 4.23146 14.9502 4.32158C14.9457 6.82984 14.9502 9.33752 14.9474 11.8446C14.9207 11.9643 14.848 12.0684 14.7454 12.1344C12.5617 13.4008 10.3777 14.6664 8.19361 15.9313C8.14068 15.972 8.07688 15.9957 8.01044 15.9995C7.94399 16.0032 7.87795 15.9869 7.82083 15.9525C5.63445 14.6899 3.45014 13.425 1.26792 12.1578C1.197 12.124 1.1376 12.0699 1.09721 12.0021C1.05681 11.9344 1.03724 11.8561 1.04096 11.7772C1.04096 9.26952 1.04096 6.76202 1.04096 4.25472C1.03561 4.17614 1.05364 4.09774 1.09276 4.02953C1.13187 3.96133 1.19029 3.90642 1.26054 3.87182C3.31151 2.68389 5.36247 1.4952 7.41344 0.305746C7.59614 0.200592 7.77544 0.0891519 7.96608 0Z" fill="#019639"/>
<path d="M3.8225 5.09854C3.8225 7.2615 3.8225 9.42465 3.8225 11.588C3.81979 11.7078 3.84058 11.827 3.88365 11.9385C3.92673 12.05 3.99122 12.1517 4.07338 12.2376C4.23084 12.3958 4.43689 12.4944 4.65713 12.5168C4.87738 12.5392 5.09853 12.4841 5.28368 12.3607C5.40762 12.2751 5.50908 12.1599 5.57923 12.0252C5.64938 11.8905 5.68608 11.7404 5.68614 11.588C5.68614 10.0223 5.6832 8.45652 5.68614 6.89078C7.08955 8.59995 8.49589 10.3067 9.90517 12.0111C10.101 12.2129 10.3434 12.3614 10.6103 12.443C10.8772 12.5247 11.16 12.5369 11.4327 12.4784C11.6253 12.4399 11.8007 12.3394 11.933 12.192C12.0653 12.0445 12.1476 11.8577 12.1677 11.6591C12.1709 9.45154 12.1709 7.24417 12.1677 5.03699C12.1475 4.80138 12.0412 4.58205 11.8698 4.42226C11.6984 4.26247 11.4743 4.17383 11.2418 4.17383C11.0093 4.17383 10.7852 4.26247 10.6138 4.42226C10.4424 4.58205 10.3361 4.80138 10.3159 5.03699C10.3159 6.62783 10.3065 8.21688 10.3159 9.80712C8.93752 8.15413 7.57621 6.48679 6.20316 4.82782C6.02214 4.59172 5.78249 4.409 5.50892 4.29849C5.23535 4.18798 4.93775 4.15368 4.6468 4.19914C4.4264 4.22409 4.22208 4.32853 4.07086 4.49353C3.91964 4.65852 3.83153 4.87316 3.8225 5.09854Z" fill="white"/>
</svg>
