<svg width="16" height="16" viewBox="0 0 16 16" fill="none" xmlns="http://www.w3.org/2000/svg">
<g clip-path="url(#clip0_389_2673)">
<path d="M15.454 9.8299C15.361 9.54817 15.1173 9.35194 14.8022 9.30486C14.6536 9.28268 14.4835 9.29213 14.2821 9.33364C13.9311 9.40606 13.6707 9.43363 13.4806 9.43897C14.198 8.22788 14.7812 6.8468 15.117 5.54675C15.66 3.4446 15.3699 2.48693 15.0308 2.05377C14.1335 0.907214 12.8243 0.291276 11.245 0.272429C10.4025 0.262127 9.66285 0.428474 9.27701 0.548098C8.91777 0.484711 8.53151 0.44932 8.12621 0.442776C7.36647 0.430656 6.69521 0.596275 6.12163 0.936666C5.80408 0.829282 5.29444 0.677904 4.70589 0.581307C3.32166 0.354057 2.20602 0.53113 1.38998 1.10762C0.401834 1.80561 -0.0562409 3.01834 0.0284779 4.71211C0.0553843 5.24987 0.356203 6.88607 0.829852 8.43779C1.10207 9.32971 1.39234 10.0704 1.69261 10.6394C2.11845 11.4463 2.5741 11.9214 3.08563 12.0921C3.37233 12.1876 3.89324 12.2545 4.44113 11.7982C4.51058 11.8823 4.60323 11.9659 4.72619 12.0435C4.88236 12.142 5.07331 12.2224 5.26402 12.2701C5.95128 12.4419 6.59503 12.399 7.14425 12.1581C7.14764 12.2558 7.15025 12.3492 7.15243 12.4298C7.15607 12.5605 7.1597 12.6886 7.16449 12.8085C7.19703 13.619 7.25218 14.2492 7.41556 14.6901C7.42453 14.7143 7.43659 14.7513 7.44931 14.7905C7.53082 15.04 7.66711 15.4578 8.01386 15.785C8.37292 16.1239 8.80724 16.2279 9.20501 16.2279C9.40451 16.2279 9.59485 16.2017 9.76181 16.1659C10.3569 16.0384 11.0328 15.8441 11.5217 15.1479C11.9839 14.4898 12.2087 13.4986 12.2493 11.9367C12.2546 11.8925 12.2594 11.8504 12.2641 11.8102L12.2738 11.7276L12.3827 11.7372L12.4108 11.7391C13.0169 11.7667 13.758 11.6382 14.2132 11.4268C14.5728 11.2599 15.7254 10.6514 15.454 9.8299Z" fill="black"/>
<path d="M14.4169 9.98968C12.6146 10.3615 12.4907 9.75128 12.4907 9.75128C14.3935 6.92774 15.189 3.34368 14.5026 2.46649C12.6298 0.0737008 9.38804 1.20535 9.33392 1.23468L9.31653 1.23783C8.96044 1.16389 8.562 1.1199 8.1141 1.11257C7.29867 1.09923 6.68006 1.32636 6.21066 1.68233C6.21066 1.68233 0.427598 -0.700101 0.696602 4.67863C0.753808 5.82288 2.33668 13.3367 4.22461 11.0672C4.91467 10.2373 5.58145 9.5356 5.58145 9.5356C5.91257 9.75558 6.30901 9.86781 6.72461 9.82751L6.75691 9.80012C6.74685 9.90314 6.75145 10.0039 6.76981 10.1232C6.28344 10.6666 6.42639 10.762 5.45413 10.9622C4.47029 11.165 5.04823 11.5259 5.42558 11.6203C5.88305 11.7347 6.94137 11.8967 7.65645 10.8956L7.62797 11.0099C7.8185 11.1625 7.9523 12.0027 7.92988 12.7644C7.90746 13.526 7.89249 14.0489 8.04259 14.4574C8.19282 14.8658 8.34244 15.7848 9.62062 15.5109C10.6886 15.2821 11.242 14.689 11.3191 13.6996C11.3737 12.9963 11.4973 13.1003 11.5051 12.4714L11.6043 12.1738C11.7187 11.2203 11.6225 10.9127 12.2804 11.0558L12.4404 11.0699C12.9246 11.0919 13.5585 10.9919 13.9305 10.8191C14.7315 10.4473 15.2066 9.8266 14.4167 9.98968H14.4169Z" fill="#336791"/>
<path d="M6.54985 5.19047C6.38744 5.16786 6.24037 5.18877 6.16595 5.24513C6.12414 5.27682 6.11117 5.31354 6.10765 5.33882C6.09832 5.40578 6.14523 5.47983 6.17407 5.51801C6.25564 5.62612 6.37478 5.70042 6.49271 5.71678C6.5098 5.7192 6.52682 5.72029 6.54373 5.72029C6.74038 5.72029 6.91921 5.56716 6.93496 5.45414C6.95466 5.31258 6.74916 5.21816 6.54985 5.19047ZM11.9302 5.19495C11.9146 5.08399 11.7172 5.05236 11.5298 5.07842C11.3427 5.10448 11.1613 5.18895 11.1764 5.30015C11.1885 5.38663 11.3447 5.53425 11.5295 5.53425C11.5452 5.53425 11.5609 5.53322 11.5768 5.53098C11.7002 5.51389 11.7907 5.43553 11.8337 5.39039C11.8992 5.32154 11.9371 5.24482 11.9302 5.19495Z" fill="white"/>
<path d="M15.0173 9.94736C14.9486 9.73956 14.7274 9.67272 14.3599 9.74859C13.2688 9.97378 12.878 9.81779 12.7498 9.72332C13.5979 8.43133 14.2955 6.86954 14.6719 5.41242C14.8502 4.72218 14.9487 4.08116 14.9567 3.55866C14.9657 2.9852 14.868 2.56379 14.6665 2.30636C13.8544 1.26859 12.6624 0.711916 11.2195 0.696645C10.2275 0.685495 9.38943 0.939348 9.22696 1.01073C8.88481 0.925653 8.51182 0.873415 8.10574 0.866749C7.36108 0.85469 6.71739 1.03298 6.18447 1.39639C5.95298 1.31022 5.35474 1.10485 4.62311 0.98698C3.35827 0.783364 2.35316 0.937651 1.6359 1.44578C0.780044 2.05215 0.384932 3.13604 0.46147 4.66728C0.487225 5.18244 0.780771 6.76725 1.244 8.28498C1.85375 10.2826 2.5166 11.4135 3.21398 11.6461C3.29561 11.6733 3.38972 11.6923 3.49353 11.6923C3.74793 11.6923 4.05984 11.5777 4.38435 11.1875C4.78016 10.7127 5.18961 10.2494 5.61217 9.79822C5.88632 9.94536 6.1875 10.0275 6.49553 10.0358C6.49614 10.0438 6.49693 10.0519 6.49765 10.0599C6.44463 10.1231 6.39271 10.1873 6.34191 10.2523C6.12848 10.5232 6.08406 10.5797 5.39704 10.7211C5.2016 10.7615 4.68256 10.8684 4.67493 11.2323C4.66669 11.6298 5.2885 11.7967 5.35934 11.8144C5.60623 11.8763 5.84408 11.9067 6.07091 11.9067C6.62255 11.9067 7.10802 11.7254 7.49598 11.3746C7.48404 12.7918 7.54313 14.1883 7.71329 14.6137C7.85267 14.9621 8.19312 15.8133 9.26853 15.8133C9.42633 15.8133 9.60001 15.7949 9.79108 15.7539C10.9135 15.5133 11.4009 15.0173 11.5894 13.9236C11.6903 13.3391 11.8634 11.9435 11.9449 11.1948C12.1167 11.2484 12.338 11.273 12.5772 11.2729C13.076 11.2729 13.6517 11.1669 14.0127 10.9994C14.4182 10.811 15.15 10.3489 15.0173 9.94736ZM12.3445 4.88847C12.3408 5.10948 12.3103 5.31012 12.2781 5.51956C12.2434 5.74481 12.2075 5.97769 12.1985 6.26039C12.1896 6.53551 12.2239 6.82155 12.2571 7.09819C12.3243 7.65692 12.3932 8.23213 12.1265 8.79971C12.0822 8.72121 12.0427 8.64008 12.0083 8.55677C11.9752 8.47641 11.9032 8.34733 11.8035 8.16868C11.4157 7.47324 10.5076 5.84468 10.9725 5.18014C11.111 4.98234 11.4624 4.77896 12.3445 4.88847ZM11.2752 1.14418C12.5681 1.17272 13.5908 1.65637 14.3148 2.58161C14.8702 3.29129 14.2586 6.52049 12.4883 9.30633C12.4705 9.28369 12.4526 9.26113 12.4346 9.23864L12.4122 9.21064C12.8697 8.45514 12.7802 7.70764 12.7006 7.04492C12.6679 6.77295 12.637 6.51606 12.6449 6.27475C12.653 6.01902 12.6868 5.79965 12.7195 5.58755C12.7597 5.32618 12.8006 5.05572 12.7893 4.73691C12.7978 4.70346 12.8011 4.66394 12.7967 4.61704C12.7679 4.31131 12.4189 3.39631 11.7074 2.56815C11.3183 2.11517 10.7507 1.60825 9.97585 1.26635C10.3092 1.19726 10.7649 1.13284 11.2752 1.14418ZM4.04093 10.902C3.68339 11.3319 3.43651 11.2495 3.3553 11.2224C2.82626 11.046 2.21239 9.92778 1.67117 8.15463C1.20285 6.62036 0.92918 5.07754 0.907486 4.64492C0.839129 3.27669 1.17079 2.32315 1.89333 1.81072C3.06921 0.97686 5.00247 1.47596 5.7793 1.72909C5.76815 1.74012 5.75652 1.75042 5.74549 1.76163C4.47071 3.04902 4.50094 5.24855 4.5041 5.38302C4.50397 5.4349 4.50834 5.50835 4.51428 5.60937C4.53621 5.97933 4.57706 6.66787 4.46798 7.44761C4.36666 8.1722 4.59003 8.8814 5.08071 9.39341C5.13106 9.44586 5.18399 9.49577 5.2393 9.54297C5.02089 9.77689 4.54621 10.2942 4.04093 10.902ZM5.40316 9.08441C5.00768 8.67173 4.82806 8.09772 4.9103 7.50942C5.02544 6.68574 4.98296 5.96836 4.96011 5.58294C4.9569 5.52901 4.95405 5.48174 4.95241 5.44447C5.13864 5.27934 6.00164 4.81696 6.6171 4.95798C6.89792 5.02227 7.06905 5.21353 7.1402 5.54246C7.5084 7.2455 7.18892 7.95531 6.93222 8.52574C6.87931 8.64324 6.82932 8.75432 6.78666 8.86922L6.75357 8.95806C6.66982 9.18264 6.59189 9.39147 6.54359 9.58975C6.12315 9.58854 5.71416 9.40892 5.40316 9.08435V9.08441ZM5.4677 11.3812C5.34492 11.3505 5.23451 11.2972 5.16973 11.253C5.22384 11.2276 5.32014 11.1929 5.48715 11.1585C6.29537 10.9922 6.42021 10.8747 6.69279 10.5286C6.75526 10.4492 6.82611 10.3593 6.92422 10.2497L6.92434 10.2496C7.07045 10.086 7.13729 10.1138 7.25849 10.1641C7.35672 10.2047 7.45241 10.3278 7.49119 10.4633C7.50955 10.5273 7.53016 10.6487 7.46271 10.7433C6.89331 11.5405 6.06358 11.5303 5.4677 11.3812ZM9.69752 15.3172C8.70877 15.5291 8.35868 15.0246 8.12798 14.4479C7.97908 14.0755 7.90588 12.3966 7.95781 10.5424C7.95848 10.5177 7.95496 10.4939 7.94818 10.4715C7.9421 10.4272 7.93287 10.3834 7.92054 10.3405C7.84334 10.0707 7.65517 9.845 7.42944 9.75144C7.33975 9.71429 7.17516 9.64611 6.97736 9.69671C7.01954 9.52291 7.09269 9.32663 7.17201 9.11411L7.20528 9.02472C7.24273 8.92394 7.28976 8.81953 7.33945 8.70899C7.60809 8.11221 7.97599 7.29477 7.5767 5.44811C7.42714 4.75642 6.92767 4.41864 6.17054 4.49711C5.71664 4.54408 5.30135 4.72721 5.09422 4.83223C5.04968 4.85477 5.00895 4.87659 4.9709 4.8978C5.02871 4.2009 5.24711 2.89849 6.06412 2.07445C6.57856 1.55571 7.26364 1.29949 8.09834 1.31331C9.74303 1.34022 10.7977 2.18425 11.3929 2.88764C11.9058 3.4937 12.1836 4.10424 12.2944 4.43354C11.4609 4.34876 10.8939 4.51329 10.6066 4.92416C9.98137 5.81789 10.9486 7.5525 11.4135 8.38618C11.4987 8.53895 11.5723 8.671 11.5954 8.72711C11.7468 9.09399 11.9428 9.33893 12.0859 9.5177C12.1298 9.57248 12.1723 9.62563 12.2047 9.67205C11.9522 9.74483 11.4987 9.91299 11.5401 10.7536C11.5067 11.1754 11.2697 13.1501 11.1493 13.8478C10.9904 14.7695 10.6512 15.1128 9.69752 15.3173V15.3172ZM13.8246 10.5943C13.5665 10.7141 13.1344 10.804 12.7241 10.8233C12.2708 10.8445 12.04 10.7725 11.9857 10.7282C11.9603 10.2044 12.1552 10.1497 12.3616 10.0918C12.394 10.0827 12.4256 10.0738 12.4562 10.0631C12.4751 10.0786 12.4959 10.0939 12.5187 10.1089C12.883 10.3494 13.5328 10.3753 14.4503 10.1859L14.4603 10.1839C14.3366 10.2996 14.1248 10.4549 13.8246 10.5943Z" fill="white"/>
</g>
<defs>
<clipPath id="clip0_389_2673">
<rect width="16" height="16" fill="white"/>
</clipPath>
</defs>
</svg>
