<svg width="16" height="16" viewBox="0 0 16 16" fill="none" xmlns="http://www.w3.org/2000/svg">
<path d="M15.37 11.5568C14.5163 12.0018 10.0939 13.8201 9.15245 14.3109C8.21095 14.8018 7.68793 14.7971 6.94415 14.4415C6.20042 14.086 1.49426 12.185 0.646493 11.7797C0.22283 11.5773 0 11.4063 0 11.2448V9.62792C0 9.62792 6.12688 8.29413 7.11599 7.93927C8.10504 7.5844 8.44822 7.57159 9.28992 7.8799C10.1317 8.18834 15.1648 9.09641 15.9967 9.40109L15.9964 10.9951C15.9965 11.155 15.8045 11.3303 15.37 11.5568Z" fill="#912626"/>
<path d="M15.3697 9.94922C14.516 10.394 10.0938 12.2124 9.15231 12.7032C8.21088 13.1941 7.68786 13.1893 6.94413 12.8338C6.20035 12.4785 1.49437 10.5772 0.646667 10.1722C-0.201036 9.76695 -0.218782 9.48807 0.613923 9.16201C1.44663 8.83582 6.1268 6.99964 7.11604 6.64477C8.10509 6.29003 8.4482 6.27709 9.28991 6.58553C10.1317 6.89384 14.5275 8.64355 15.3593 8.94818C16.1914 9.25318 16.2233 9.50431 15.3697 9.94922Z" fill="#C6302B"/>
<path d="M15.37 8.94053C14.5163 9.38557 10.0939 11.2038 9.15245 11.6948C8.21095 12.1856 7.68793 12.1808 6.94415 11.8253C6.20036 11.4699 1.49426 9.56872 0.646493 9.16349C0.22283 8.96103 0 8.79031 0 8.62878V7.01167C0 7.01167 6.12688 5.67794 7.11599 5.32308C8.10504 4.96821 8.44822 4.95534 9.28992 5.26372C10.1318 5.57209 15.1649 6.47997 15.9967 6.78472L15.9964 8.37896C15.9965 8.53874 15.8045 8.71408 15.37 8.94053Z" fill="#912626"/>
<path d="M15.3697 7.33298C14.516 7.77789 10.0938 9.59614 9.15231 10.0871C8.21088 10.5779 7.68786 10.5731 6.94413 10.2175C6.20035 9.86221 1.49437 7.96098 0.646667 7.55593C-0.201036 7.15083 -0.218782 6.87189 0.613923 6.5457C1.44663 6.21971 6.12686 4.38339 7.11604 4.02859C8.10509 3.67379 8.4482 3.66092 9.28991 3.96929C10.1317 4.2776 14.5275 6.02718 15.3593 6.33193C16.1914 6.63687 16.2233 6.88807 15.3697 7.33298Z" fill="#C6302B"/>
<path d="M15.37 6.22702C14.5163 6.67193 10.0939 8.49031 9.15245 8.98134C8.21095 9.47211 7.68793 9.4673 6.94415 9.11175C6.20036 8.75638 1.49426 6.85515 0.646493 6.4501C0.22283 6.24746 0 6.07668 0 5.91534V4.29817C0 4.29817 6.12688 2.9645 7.11599 2.6097C8.10504 2.25477 8.44822 2.24202 9.28992 2.55034C10.1318 2.85871 15.1649 3.76659 15.9967 4.07134L15.9964 5.66551C15.9965 5.82517 15.8045 6.00051 15.37 6.22702Z" fill="#912626"/>
<path d="M15.3696 4.62002C14.516 5.06492 10.0938 6.8833 9.15228 7.37408C8.21084 7.86485 7.68783 7.86004 6.9441 7.50468C6.20038 7.14913 1.49434 5.24801 0.646698 4.84291C-0.201067 4.43786 -0.218751 4.15886 0.613892 3.83274C1.4466 3.50668 6.12683 1.67062 7.116 1.31569C8.10505 0.960823 8.44817 0.948075 9.28988 1.25645C10.1316 1.56482 14.5275 3.31441 15.3593 3.61916C16.1913 3.92384 16.2233 4.17511 15.3696 4.62002Z" fill="#C6302B"/>
<path d="M9.95291 3.04707L8.57757 3.18985L8.26969 3.9307L7.77242 3.10399L6.18431 2.96127L7.36931 2.53392L7.01376 1.87793L8.12322 2.31184L9.16914 1.96941L8.88644 2.64771L9.95291 3.04707ZM8.18759 6.64121L5.6208 5.57661L9.2988 5.01204L8.18759 6.64121ZM4.62894 3.45886C5.71465 3.45886 6.59478 3.80004 6.59478 4.22083C6.59478 4.64174 5.71465 4.98286 4.62894 4.98286C3.54322 4.98286 2.66309 4.64168 2.66309 4.22083C2.66309 3.80004 3.54322 3.45886 4.62894 3.45886Z" fill="white"/>
<path d="M11.5791 3.24957L13.7559 4.10977L11.581 4.96916L11.5791 3.24957Z" fill="#621B1C"/>
<path d="M9.1709 4.20213L11.5792 3.24951L11.581 4.9691L11.3449 5.06146L9.1709 4.20213Z" fill="#9A2928"/>
</svg>
