<svg width="24" height="24" viewBox="0 0 24 24" fill="none" xmlns="http://www.w3.org/2000/svg">
<path d="M2.99902 3.10347C2.44702 3.10347 1.99902 3.55147 1.99902 4.10347C1.99902 4.65547 2.44702 5.10347 2.99902 5.10347H20.999C21.551 5.10347 21.999 4.65547 21.999 4.10347C21.999 3.55147 21.551 3.10347 20.999 3.10347H2.99902ZM2.99902 11.1035C2.44702 11.1035 1.99902 11.5515 1.99902 12.1035C1.99902 12.6555 2.44702 13.1035 2.99902 13.1035H20.999C21.551 13.1035 21.999 12.6555 21.999 12.1035C21.999 11.5515 21.551 11.1035 20.999 11.1035H2.99902ZM2.99902 19.1035C2.44702 19.1035 1.99902 19.5515 1.99902 20.1035C1.99902 20.6555 2.44702 21.1035 2.99902 21.1035H20.999C21.551 21.1035 21.999 20.6555 21.999 20.1035C21.999 19.5515 21.551 19.1035 20.999 19.1035H2.99902Z" fill="currentColor"/>
</svg>
