<svg width="22" height="22" viewBox="0 0 22 22" fill="none" xmlns="http://www.w3.org/2000/svg">
<path opacity="0.977974" d="M6.40788 2.74854C4.38296 2.74854 2.74121 4.39028 2.74121 6.4152V15.5818C2.74121 17.6068 4.38296 19.2485 6.40788 19.2485H15.5746C17.5995 19.2485 19.2412 17.6068 19.2412 15.5818V11.9152C19.2412 11.4092 18.8306 10.9985 18.3246 10.9985C17.8186 10.9985 17.4079 11.4092 17.4079 11.9152V15.5818C17.4079 16.5948 16.5875 17.4152 15.5746 17.4152H6.40788C5.39496 17.4152 4.57455 16.5948 4.57455 15.5818V6.4152C4.57455 5.40228 5.39496 4.58187 6.40788 4.58187H13.7412C14.2472 4.58187 14.6579 4.1712 14.6579 3.6652C14.6579 3.1592 14.2472 2.74854 13.7412 2.74854H6.40788ZM19.2412 3.6652C19.0066 3.6652 18.7609 3.74771 18.5821 3.92279L10.5897 11.7722C10.3541 12.0041 10.1167 11.9876 9.93154 11.7144L9.01488 10.3679C8.73438 9.95445 8.14588 9.83436 7.72605 10.1103C7.3053 10.3862 7.18705 10.9573 7.46755 11.3707L8.38422 12.7173C9.21014 13.9355 10.8262 14.0969 11.8795 13.061L19.9003 5.1832C20.2578 4.83212 20.2578 4.27479 19.9003 3.92279C19.7215 3.74679 19.4759 3.6652 19.2412 3.6652Z" fill="currentColor"/>
</svg>
