<svg width="48" height="48" viewBox="0 0 48 48" fill="none" xmlns="http://www.w3.org/2000/svg">
<path d="M24.0283 3.99805C12.9823 3.99805 4.02832 12.952 4.02832 23.998C4.02832 35.044 12.9823 43.998 24.0283 43.998C34.1883 43.998 42.7163 36.382 43.9043 26.374C44.0323 25.276 43.2503 24.254 42.1523 24.122C41.0563 23.994 40.0323 24.776 39.9043 25.874C38.9543 33.874 32.1563 39.998 24.0283 39.998C15.1923 39.998 8.02832 32.834 8.02832 23.998C8.02832 15.162 15.1923 7.99804 24.0283 7.99804C25.8743 7.99804 27.7023 8.33203 29.4043 8.93603C30.4443 9.30403 31.5343 8.72603 31.9043 7.68603C32.2723 6.64403 31.7563 5.49207 30.7163 5.12207C28.5883 4.36807 26.3303 3.99805 24.0283 3.99805ZM42.0283 7.99804C41.5163 7.99804 40.9803 8.17805 40.5903 8.56005L23.1523 25.748C22.6383 26.254 22.1203 26.156 21.7163 25.56L19.7163 22.622C19.1043 21.72 17.8203 21.458 16.9043 22.06C15.9863 22.662 15.7283 23.908 16.3403 24.81L18.3403 27.748C20.1423 30.406 23.6683 30.758 25.9663 28.498L43.4663 11.374C44.2463 10.606 44.2463 9.32805 43.4663 8.56005C43.0763 8.17605 42.5403 7.99804 42.0283 7.99804Z" fill="currentColor"/>
</svg>
