<svg width="16" height="16" viewBox="0 0 16 16" fill="none" xmlns="http://www.w3.org/2000/svg">
<path fill-rule="evenodd" clip-rule="evenodd" d="M3.33268 2.66064C1.85995 2.66064 0.666016 3.85464 0.666016 5.32731V11.994C0.666016 13.4666 1.85995 14.6606 3.33268 14.6606H12.666C14.1388 14.6606 15.3327 13.4666 15.3327 11.994V5.32731C15.3327 3.85486 14.1391 2.66099 12.6667 2.66064C4.66667 2.66064 14.6678 2.66064 3.33268 2.66064ZM12.666 3.99398H3.33268C2.59628 3.99398 1.99935 4.59064 1.99935 5.32731V5.51465L5.56188 6.70199C6.51855 7.02132 9.48015 7.02132 10.4368 6.70199L13.9994 5.51465V5.32731C13.9994 4.59064 13.4024 3.99398 12.666 3.99398ZM5.14522 7.97331L1.99935 6.91064V11.994C1.99935 12.7306 2.59628 13.3273 3.33268 13.3273H12.666C13.4024 13.3273 13.9994 12.7306 13.9994 11.994V6.91064L10.8535 7.97331C9.62315 8.38331 6.37555 8.38331 5.14522 7.97331Z" fill="currentColor"/>
</svg>
