<svg width="162" height="20" viewBox="0 0 162 20" fill="none" xmlns="http://www.w3.org/2000/svg">
<path d="M146.997 16.1788V3.82731H149.171V15.3879L148.198 14.4152H153.373C154.131 14.4152 154.731 14.2243 155.168 13.8394C155.607 13.4455 155.826 12.9212 155.826 12.2758C155.826 11.6303 155.607 11.094 155.168 10.7122C154.728 10.3182 154.131 10.1182 153.373 10.1182H147.985V8.35458H153.473C154.407 8.35458 155.213 8.51822 155.895 8.84852C156.578 9.17882 157.105 9.63943 157.478 10.2334C157.851 10.8152 158.039 11.497 158.039 12.2758C158.039 13.0546 157.851 13.7243 157.478 14.3182C157.105 14.9 156.578 15.3546 155.895 15.6849C155.213 16.0152 154.407 16.1788 153.473 16.1788H146.997ZM159.388 3.82427H161.562V16.1758H159.388V3.82427Z" fill="currentColor"/>
<path d="M145.002 11.2849C144.893 12.294 144.535 13.1909 143.932 13.9697C143.338 14.7394 142.559 15.3364 141.591 15.7637C140.624 16.1909 139.521 16.4061 138.281 16.4061C136.895 16.4061 135.682 16.1364 134.64 15.6C133.597 15.0606 132.784 14.3152 132.202 13.3606C131.62 12.394 131.329 11.2758 131.329 10C131.329 8.72428 131.62 7.61216 132.202 6.65761C132.784 5.69094 133.597 4.93943 134.64 4.40004C135.682 3.86065 136.898 3.59398 138.281 3.59398C139.524 3.59398 140.627 3.80913 141.591 4.2364C142.559 4.66367 143.338 5.26367 143.932 6.03034C144.535 6.80003 144.893 7.69398 145.002 8.71519H142.81C142.689 8.05761 142.425 7.49094 142.019 7.01822C141.625 6.54549 141.106 6.18489 140.47 5.93034C139.833 5.6667 139.096 5.5364 138.263 5.5364C137.295 5.5364 136.456 5.71822 135.74 6.07882C135.037 6.44246 134.494 6.95761 134.109 7.62731C133.724 8.29701 133.533 9.08791 133.533 10C133.533 10.9122 133.724 11.7031 134.109 12.3728C134.494 13.0425 135.037 13.5576 135.74 13.9212C136.456 14.2849 137.295 14.4637 138.263 14.4637C139.096 14.4637 139.833 14.3364 140.47 14.0849C141.106 13.8334 141.622 13.4697 142.019 12.997C142.425 12.5152 142.689 11.9425 142.81 11.2849H145.002Z" fill="currentColor"/>
<path d="M116.373 16.1788V3.82731H118.483V15.1576L117.74 15.0273L126.36 3.82731H129.194V16.1788H127.084V4.74852L127.827 4.87882L119.144 16.1758H116.376L116.373 16.1788Z" fill="currentColor"/>
<path d="M109.921 10.0516L110.137 9.57276C111.116 9.58488 111.91 9.73337 112.526 10.0182C113.153 10.3031 113.608 10.6879 113.893 11.1697C114.19 11.6516 114.339 12.197 114.339 12.8C114.339 13.4576 114.178 14.0394 113.86 14.5455C113.55 15.0515 113.096 15.4516 112.492 15.7485C111.889 16.0334 111.134 16.1758 110.234 16.1758H101.993L102.966 9.83337L101.993 3.82125H109.937C111.08 3.82125 111.959 4.09095 112.574 4.62731C113.202 5.15459 113.514 5.88488 113.514 6.81822C113.514 7.31216 113.393 7.79397 113.15 8.2667C112.92 8.72731 112.541 9.12428 112.013 9.45155C111.498 9.76973 110.801 9.9667 109.921 10.0455V10.0516ZM104.185 15.5667L103.345 14.4303H109.985C110.667 14.4303 111.195 14.2758 111.568 13.9697C111.953 13.6516 112.144 13.2 112.144 12.6182C112.144 12.0031 111.919 11.5243 111.468 11.1849C111.028 10.8455 110.373 10.6758 109.506 10.6758H104.152V8.997H109.294C109.876 8.997 110.358 8.8364 110.743 8.51822C111.128 8.18792 111.319 7.72125 111.319 7.11822C111.319 6.66671 111.158 6.30004 110.84 6.01519C110.522 5.71822 110.061 5.56973 109.454 5.56973H103.342L104.182 4.43337L105.055 9.8364L104.182 15.5667H104.185Z" fill="currentColor"/>
<path d="M96.1237 3.82427C97.0453 3.82427 97.8427 3.98791 98.5127 4.31822C99.1949 4.64852 99.7163 5.10913 100.077 5.70307C100.45 6.28488 100.638 6.96064 100.638 7.73034C100.638 8.50004 100.45 9.17882 100.077 9.77276C99.7133 10.3546 99.1918 10.8091 98.5127 11.1394C97.8427 11.4697 97.0453 11.6334 96.1237 11.6334H90.5694V9.75458H96.0418C96.7876 9.75458 97.3697 9.57276 97.7881 9.21215C98.2156 8.84852 98.4309 8.35458 98.4309 7.73034C98.4309 7.1061 98.2156 6.60912 97.7881 6.24852C97.3697 5.88488 96.7876 5.7061 96.0418 5.7061H90.7847L91.7579 4.61822V16.1788H89.5841V3.82731H96.1267L96.1237 3.82427Z" fill="currentColor"/>
<path d="M86.8373 9.09398V10.9061H78.2028V9.09398H86.8373ZM79.6338 10L78.7607 15.5182L77.7238 14.3H87.3133V16.1788H76.5353L77.5237 10.0031L76.5353 3.82731H87.2284V5.7061H77.7207L78.7576 4.48791L79.6308 10.0061L79.6338 10Z" fill="currentColor"/>
<path d="M74.9709 11.2849C74.8618 12.294 74.504 13.1909 73.9007 13.9697C73.3065 14.7394 72.5273 15.3364 71.5602 15.7637C70.593 16.1909 69.4894 16.4061 68.2494 16.4061C66.8639 16.4061 65.6512 16.1364 64.6083 15.6C63.5653 15.0606 62.7528 14.3152 62.1707 13.3606C61.5886 12.394 61.2976 11.2758 61.2976 10C61.2976 8.72428 61.5886 7.61216 62.1707 6.65761C62.7528 5.69094 63.5653 4.93943 64.6083 4.40004C65.6512 3.86065 66.8669 3.59398 68.2494 3.59398C69.4894 3.59398 70.5961 3.80913 71.5602 4.2364C72.5273 4.66367 73.3065 5.26367 73.9007 6.03034C74.504 6.80003 74.8618 7.69398 74.9709 8.71519H72.7789C72.6577 8.05761 72.3939 7.49094 71.9877 7.01822C71.5935 6.54549 71.0751 6.18489 70.4384 5.93034C69.8017 5.6667 69.065 5.5364 68.2313 5.5364C67.2641 5.5364 66.4243 5.71822 65.7088 6.07882C65.0054 6.44246 64.4627 6.95761 64.0777 7.62731C63.6927 8.29701 63.5016 9.08791 63.5016 10C63.5016 10.9122 63.6927 11.7031 64.0777 12.3728C64.4627 13.0425 65.0054 13.5576 65.7088 13.9212C66.4243 14.2849 67.2641 14.4637 68.2313 14.4637C69.065 14.4637 69.8017 14.3364 70.4384 14.0849C71.0751 13.8334 71.5905 13.4697 71.9877 12.997C72.3939 12.5152 72.6577 11.9425 72.7789 11.2849H74.9709Z" fill="currentColor"/>
<path d="M41.9821 16.1788V3.82731H44.0923V15.1576L43.3495 15.0273L51.9688 3.82731H54.8036V16.1788H52.6934V4.74852L53.4362 4.87882L44.7532 16.1758H41.9852L41.9821 16.1788Z" fill="currentColor"/>
<path d="M26.3896 16.1788V3.82731H28.4998V15.1576L27.757 15.0273L36.3763 3.82731H39.211V16.1788H37.1009V4.74852L37.8437 4.87882L29.1607 16.1758H26.3927L26.3896 16.1788Z" fill="currentColor"/>
<path d="M0 5.88182L9.41675 0V3.30825L14.7132 0V3.30833L20.0098 0V14.1182L10.5931 20V16.6917L5.29648 20V16.6918L0 20V5.88182Z" fill="#7500FF"/>
</svg>
