<svg width="16" height="16" viewBox="0 0 16 16" fill="none" xmlns="http://www.w3.org/2000/svg">
<g clip-path="url(#clip0_389_2685)">
<path fill-rule="evenodd" clip-rule="evenodd" d="M8.65354 0.203901C8.2577 -0.0242086 7.74167 -0.0231829 7.34549 0.203901C6.85726 0.479981 6.36904 0.756081 5.88081 1.03219C4.38481 1.8782 2.88876 2.72425 1.39252 3.56981C1.00635 3.77797 0.745895 4.20291 0.750049 4.64397V11.4234C0.747261 11.873 1.02115 12.3021 1.41728 12.5074C1.63233 12.6246 1.84507 12.7463 2.0578 12.868C2.40894 13.069 2.76005 13.2698 3.12145 13.4505C3.7918 13.788 4.63049 13.8626 5.30904 13.5107C5.85984 13.2189 6.10448 12.5701 6.10379 11.9738C6.1066 10.5607 6.10613 9.14756 6.10567 7.73445C6.10539 6.91015 6.10512 6.08586 6.1055 5.26157C6.11859 5.16213 6.04575 5.05585 5.9399 5.05824C5.68633 5.05414 5.43241 5.05585 5.17884 5.05756C5.08301 5.04827 4.98951 5.12982 4.99674 5.22851C4.99495 6.39288 4.99522 7.55744 4.99549 8.72203C4.99574 9.78084 4.99599 10.8397 4.99469 11.8984C5.00021 12.206 4.79745 12.5016 4.5082 12.6055C4.18042 12.7283 3.81514 12.633 3.51763 12.4727C3.33893 12.3716 3.1602 12.2707 2.98147 12.1697C2.632 11.9724 2.28253 11.775 1.93336 11.5768C1.89837 11.5602 1.86931 11.5332 1.85008 11.4996C1.83085 11.4659 1.82238 11.4272 1.82581 11.3885C1.82581 10.643 1.82584 9.89738 1.82588 9.15181C1.82596 7.6607 1.82603 6.16962 1.82581 4.67873C1.81619 4.58858 1.87042 4.50737 1.95123 4.47056C3.05166 3.84991 4.15177 3.2284 5.25193 2.60686C6.12893 2.11139 7.00596 1.61591 7.8832 1.12084C7.91753 1.09735 7.95816 1.08481 7.99974 1.08487C8.04132 1.08494 8.08191 1.09759 8.11617 1.12118C8.9896 1.61395 9.86289 2.107 10.7362 2.60005C11.8403 3.2234 12.9444 3.84677 14.0488 4.46959C14.1299 4.50635 14.1818 4.58892 14.1736 4.67873C14.1734 5.49231 14.1735 6.30594 14.1735 7.11958C14.1736 8.54248 14.1737 9.96542 14.1729 11.3882C14.1787 11.4674 14.1388 11.5441 14.0667 11.5788C13.0479 12.1557 12.0283 12.7314 11.0087 13.307C10.0794 13.8317 9.15007 14.3564 8.22128 14.8821C8.2093 14.8888 8.19703 14.896 8.18453 14.9033C8.09982 14.9532 8.00388 15.0096 7.90897 14.9547C7.61652 14.7889 7.32609 14.6195 7.03569 14.45C6.81912 14.3237 6.60257 14.1973 6.38519 14.0725C6.32988 14.0371 6.25943 14.022 6.20173 14.0615C6.18791 14.069 6.17409 14.0765 6.16026 14.0839C5.94583 14.1999 5.73035 14.3165 5.497 14.3908C5.46732 14.4028 5.4358 14.4125 5.4041 14.4223C5.318 14.4489 5.23057 14.4758 5.17508 14.5507C5.24303 14.6442 5.34303 14.6998 5.44206 14.755C5.4682 14.7695 5.49426 14.784 5.51965 14.7992C5.7909 14.9565 6.06235 15.1135 6.33381 15.2705C6.65794 15.458 6.98209 15.6455 7.30594 15.8335C7.69768 16.084 8.22406 16.1018 8.62844 15.8703C9.56891 15.3392 10.5092 14.8079 11.4496 14.2765C12.4935 13.6866 13.5375 13.0966 14.5817 12.5071C14.9768 12.3006 15.2521 11.8733 15.2493 11.4233V4.64397C15.2531 4.21185 15.0026 3.7945 14.6281 3.58326C13.4621 2.923 12.2958 2.26358 11.1295 1.60415C10.3042 1.13751 9.47879 0.670855 8.65354 0.203901ZM11.6483 5.29298C10.8694 4.866 9.94281 4.84326 9.07726 4.89905C8.45197 4.96236 7.79431 5.13918 7.33872 5.59848C6.87146 6.06023 6.76977 6.80581 6.9917 7.40859C7.15076 7.8345 7.55109 8.1115 7.96509 8.25801C8.4984 8.45091 9.05851 8.51056 9.61881 8.57023C10.1299 8.62466 10.6411 8.6791 11.1323 8.83469C11.3329 8.90284 11.5666 9.00707 11.628 9.23073C11.6848 9.49565 11.6226 9.8036 11.4126 9.98766C11.0354 10.2936 10.5238 10.3154 10.0562 10.3353C10.0306 10.3364 10.0051 10.3374 9.97985 10.3386C9.93044 10.3378 9.88063 10.3372 9.83053 10.3367C9.28395 10.3306 8.70325 10.3241 8.23243 10.02C7.96611 9.83864 7.85133 9.51765 7.80467 9.21181C7.79949 9.11648 7.7246 9.02906 7.62359 9.0363C7.3707 9.03322 7.11781 9.03391 6.86492 9.03596C6.77665 9.02838 6.68492 9.09272 6.68008 9.18497C6.65983 9.73129 6.86389 10.2973 7.2817 10.6606C7.77029 11.0924 8.42893 11.2589 9.06184 11.3312C9.73493 11.3969 10.4228 11.3931 11.0855 11.2451C11.5838 11.1289 12.0833 10.9149 12.4263 10.5216C12.8492 10.0437 12.9323 9.33222 12.7427 8.73696C12.5977 8.29282 12.1833 8.0079 11.7597 7.86134C11.1836 7.65893 10.5815 7.57909 9.97917 7.49922C9.51161 7.43722 9.04388 7.3752 8.58804 7.25582C8.5803 7.25338 8.5725 7.25093 8.56463 7.24847C8.38831 7.19319 8.18221 7.12858 8.10496 6.9448C8.01937 6.67742 8.09221 6.34543 8.33202 6.18098C8.64438 5.96386 9.04084 5.9319 9.40954 5.91229C9.42273 5.91217 9.43594 5.91204 9.44917 5.9119C9.94258 5.90701 10.4637 5.90183 10.9148 6.12798C11.2165 6.28281 11.3913 6.60072 11.4635 6.92172C11.4768 7.01603 11.5387 7.11438 11.6453 7.11028C11.8171 7.11379 11.9889 7.11314 12.1608 7.11248C12.2401 7.11218 12.3194 7.11188 12.3987 7.11199C12.485 7.1182 12.5794 7.06828 12.5963 6.97779C12.5856 6.30691 12.2513 5.62019 11.6483 5.29298Z" fill="#8CC84B"/>
</g>
<defs>
<clipPath id="clip0_389_2685">
<rect width="16" height="16" fill="white"/>
</clipPath>
</defs>
</svg>
