<svg width="16" height="16" viewBox="0 0 16 16" fill="none" xmlns="http://www.w3.org/2000/svg">
<path d="M11.7471 14.6667C11.0805 14.6667 10.2605 14.38 9.69381 14.14C8.92715 13.8133 8.10715 13.36 7.32715 12.8267C6.63381 12.3533 6.00715 11.8467 5.50715 11.3467C5.50715 11.3467 5.50048 11.34 5.49381 11.3333L5.08048 10.92C5.08048 10.92 5.06715 10.9067 5.06048 10.9L4.66048 10.5C4.32715 10.1667 3.99381 9.77999 3.66048 9.34666C3.02048 8.51332 2.44048 7.55999 2.01381 6.65333C1.70048 5.97999 1.32715 5.01999 1.32715 4.24666C1.32715 3.69999 1.66048 3.01999 2.21381 2.41999C2.84715 1.74666 3.62048 1.32666 4.24048 1.32666C4.86048 1.32666 5.55381 1.69999 6.18048 2.32666C6.77381 2.92666 7.14048 3.62666 7.16048 4.19999C7.16048 4.24666 7.16048 4.29333 7.14715 4.33999C7.12048 4.44666 7.10048 4.51999 7.06715 4.61333C7.01381 4.75999 6.93381 4.93333 6.84715 5.13333L6.48715 5.88666C6.44048 5.98666 6.40048 6.08666 6.36715 6.17333C6.35381 6.19999 6.34715 6.23333 6.33381 6.27333C6.34715 6.31999 6.34715 6.37333 6.34715 6.41999C6.49381 7.01333 6.92048 7.70666 7.52715 8.33332C8.21381 9.04666 9.00715 9.54666 9.65381 9.66666H9.66715H9.69381C9.69381 9.66666 9.74715 9.63999 9.76715 9.63332C9.84048 9.60666 9.92048 9.57332 10.0005 9.53332C10.1138 9.47999 10.2471 9.41999 10.3871 9.35332L10.6471 9.23332C10.8738 9.12666 11.0938 9.02666 11.2738 8.95332C11.3871 8.90666 11.4738 8.87999 11.5338 8.85999C11.5538 8.85999 11.6005 8.83999 11.6205 8.83999C11.6671 8.83332 11.7205 8.82666 11.7671 8.82666C12.3405 8.83999 13.0405 9.20666 13.6405 9.80666C14.2671 10.4267 14.6405 11.1533 14.6405 11.7467C14.6405 12.34 14.2738 13.0533 13.6538 13.6733C13.0338 14.2933 12.3138 14.66 11.7271 14.66L11.7471 14.6667ZM6.44048 10.3867C6.88715 10.8267 7.45381 11.2933 8.08048 11.72C8.78048 12.2 9.54048 12.62 10.2205 12.9067C11.1138 13.2867 11.5871 13.3267 11.7471 13.3267C11.8738 13.3267 12.2805 13.18 12.7338 12.7267C13.1871 12.2733 13.3338 11.8667 13.3338 11.74C13.3338 11.6133 13.1871 11.2067 12.7271 10.7467C12.3605 10.3867 12.0205 10.2133 11.8338 10.1667C11.8205 10.1667 11.8005 10.18 11.7805 10.1867C11.6271 10.2467 11.4338 10.3333 11.2338 10.4267L10.9805 10.5467C10.8338 10.6133 10.6938 10.6867 10.5738 10.74C10.4605 10.7867 10.3538 10.84 10.2538 10.8733C10.1938 10.8933 10.1205 10.92 10.0405 10.94C10.0405 10.94 10.0271 10.94 10.0205 10.94C9.82048 10.9867 9.63381 10.9933 9.44048 10.96C9.44048 10.96 9.43381 10.96 9.42715 10.96C8.50048 10.7933 7.46048 10.1667 6.57381 9.23999C6.10048 8.74666 5.27381 7.75332 5.02715 6.58666V6.57333C4.99381 6.42666 4.97381 6.20666 5.04048 5.94666C5.06048 5.85333 5.09381 5.76666 5.12048 5.69333C5.16715 5.57333 5.22048 5.44666 5.28048 5.31333L5.64048 4.55333C5.71381 4.39999 5.77381 4.25999 5.82048 4.13999C5.77381 3.95333 5.60048 3.61333 5.24048 3.25333C4.78715 2.79333 4.37381 2.64666 4.24715 2.64666C4.11381 2.64666 3.66048 2.81333 3.19381 3.31999C2.79381 3.74666 2.66715 4.11999 2.66715 4.23333C2.66715 4.63333 2.88048 5.31999 3.22715 6.07333C3.60715 6.89333 4.14048 7.75999 4.72048 8.51999C5.01381 8.90666 5.31381 9.24666 5.60715 9.53999L6.02048 9.95332C6.02048 9.95332 6.03381 9.96666 6.04048 9.97332L6.44048 10.3733V10.3867Z" fill="currentColor"/>
</svg>
