<svg width="22" height="22" viewBox="0 0 22 22" fill="none" xmlns="http://www.w3.org/2000/svg">
<path d="M7.33789 1.79041C6.83189 1.79041 6.42122 2.20107 6.42122 2.70707V5.45707C6.21956 5.45707 5.61914 5.45707 5.50456 5.45707C4.99856 5.45707 4.58789 5.86774 4.58789 6.37374V10.9571C4.58789 12.982 6.22964 14.6237 8.25456 14.6237H10.0879V16.9154C10.0879 17.6744 9.47189 18.2904 8.71289 18.2904H6.42122C5.91522 18.2904 5.50456 18.7011 5.50456 19.2071C5.50456 19.7131 5.91522 20.1237 6.42122 20.1237H8.71289C10.4848 20.1237 11.9212 18.6873 11.9212 16.9154V14.6237H13.7546C15.7795 14.6237 17.4212 12.982 17.4212 10.9571V6.37374C17.4212 5.86774 17.0106 5.45707 16.5046 5.45707C16.39 5.45707 15.7896 5.45707 15.5879 5.45707V2.70707C15.5879 2.20107 15.1772 1.79041 14.6712 1.79041C14.1652 1.79041 13.7546 2.20107 13.7546 2.70707V5.45707C11.7782 5.45707 10.2309 5.45707 8.25456 5.45707V2.70707C8.25456 2.20107 7.84389 1.79041 7.33789 1.79041ZM6.42122 7.29041C8.44247 7.29041 13.5666 7.29041 15.5879 7.29041V10.9571C15.5879 11.97 14.7675 12.7904 13.7546 12.7904H11.0046H8.25456C7.24164 12.7904 6.42122 11.97 6.42122 10.9571V7.29041Z" fill="currentColor"/>
</svg>
