<svg width="16" height="16" viewBox="0 0 16 16" fill="none" xmlns="http://www.w3.org/2000/svg">
<g clip-path="url(#clip0_389_2680)">
<path d="M15.3299 6.37743H10.2303C10.0605 6.3785 9.8974 6.31153 9.77735 6.19147C9.65729 6.07141 9.59032 5.90827 9.59139 5.73849V0.638963C9.59139 0.469871 9.52395 0.307762 9.40401 0.188572C9.28407 0.0693809 9.12154 0.00295491 8.95245 0.00401838H7.04362C6.87453 0.00295491 6.71201 0.0693809 6.59206 0.188572C6.47212 0.307762 6.40468 0.469871 6.40468 0.638963V5.73849C6.40576 5.90827 6.33878 6.07141 6.21873 6.19147C6.09867 6.31153 5.93553 6.3785 5.76575 6.37743H3.85692C3.68713 6.3785 3.524 6.31153 3.40394 6.19147C3.28388 6.07141 3.21691 5.90827 3.21798 5.73849V0.638963C3.21905 0.46918 3.15208 0.306041 3.03202 0.185983C2.91196 0.0659263 2.74882 -0.0010462 2.57904 1.23605e-05H0.66622C0.497128 1.23605e-05 0.335019 0.0674654 0.215828 0.187406C0.0966376 0.307346 0.0302115 0.469875 0.0312624 0.638963V15.3026C0.0302038 15.4724 0.0971763 15.6355 0.217233 15.7556C0.337291 15.8756 0.50043 15.9426 0.670213 15.9415H15.3299C15.4996 15.9426 15.6628 15.8756 15.7828 15.7556C15.9029 15.6355 15.9699 15.4724 15.9688 15.3026V7.02835C15.9731 6.8565 15.9076 6.69025 15.7872 6.56757C15.6668 6.4449 15.5017 6.37629 15.3299 6.37743ZM12.7661 11.7924C12.7672 12.0462 12.6671 12.29 12.488 12.4699C12.3089 12.6497 12.0655 12.7508 11.8117 12.7508H10.5338C10.28 12.7508 10.0366 12.6497 9.85753 12.4699C9.67843 12.29 9.57835 12.0462 9.5794 11.7924V10.5185C9.57835 10.2647 9.67843 10.0209 9.85753 9.84109C10.0366 9.66124 10.28 9.56014 10.5338 9.56014H11.8117C12.0655 9.56014 12.3089 9.66124 12.488 9.84109C12.6671 10.0209 12.7672 10.2647 12.7661 10.5185V11.7924Z" fill="#FF6600"/>
</g>
<defs>
<clipPath id="clip0_389_2680">
<rect width="16" height="16" fill="white"/>
</clipPath>
</defs>
</svg>
